<svg xmlns="http://www.w3.org/2000/svg" viewBox="0 0 183.14 111.94"><defs><style>.cls-1,.cls-5{fill:#1d1d1b;}.cls-2{fill:#f49819;}.cls-3{fill:#fff;}.cls-4{fill:none;stroke:#f49819;stroke-linecap:round;stroke-miterlimit:10;stroke-width:1.67px;}.cls-5{font-size:8px;font-family:Aileron-Bold, Aileron;font-weight:700;letter-spacing:0.08em;}.cls-6{letter-spacing:0.07em;}.cls-7{letter-spacing:0.08em;}</style></defs><g id="Layer_2" data-name="Layer 2"><g id="Layer_1-2" data-name="Layer 1"><path class="cls-1" d="M43.52,1.66v36H34.89V23.51H24.05v56.1H15.42V1.66h8.63v14.1H34.89V1.66Z"/><path class="cls-2" d="M29,92.12A9.21,9.21,0,0,0,26.75,86,15.23,15.23,0,0,1,24,81.19v0H15.54v0A15.2,15.2,0,0,1,12.78,86,9.28,9.28,0,1,0,29,92.12Z"/><path class="cls-3" d="M19.76,96.34A4.22,4.22,0,0,0,24,92.12a.85.85,0,0,1,1.69,0v0A5.93,5.93,0,0,1,19.76,98a.85.85,0,0,1-.86-.83.84.84,0,0,1,.83-.86Z"/><line class="cls-4" x1="20.13" y1="104.28" x2="20.13" y2="111.1"/><line class="cls-4" x1="10.6" y1="100.48" x2="5.57" y2="105.09"/><line class="cls-4" x1="29.09" y1="100.48" x2="34.13" y2="105.09"/><line class="cls-4" x1="7.66" y1="92.43" x2="0.84" y2="92.43"/><line class="cls-4" x1="38.72" y1="92.43" x2="31.9" y2="92.43"/><text class="cls-5" transform="translate(34.99 57.42)">Shining a light on new <tspan class="cls-6" x="99.04" y="0">t</tspan><tspan class="cls-7" x="102.47" y="0">echniques</tspan></text><path class="cls-1" d="M55.47,29.87H72v7.74H46.84V1.66H72V9.4H55.47v6.36h14v7.75h-14Z"/><path class="cls-1" d="M101.22,29.87v7.74H75.27V1.66H83.9V29.87Z"/><path class="cls-1" d="M112.28,1.66v36h-8.63V1.66Z"/><path class="cls-1" d="M151,20.35A18.53,18.53,0,1,1,132.47,1.83,18.53,18.53,0,0,1,151,20.35Zm-7.74,0A10.79,10.79,0,1,0,124.84,28a10.83,10.83,0,0,0,15.27,0A10.75,10.75,0,0,0,143.26,20.35Z"/><path class="cls-1" d="M161.74,36.62a16.11,16.11,0,0,1-4.54-2.93,11.91,11.91,0,0,1-3.65-9.52l7.58.11v-.05A7.14,7.14,0,0,0,162,27.6q1.67,2.49,6.14,2.49c5,0,7.19-1.27,7.19-3.37s-2.82-3.6-7.41-4.1a27.6,27.6,0,0,1-7.3-1.77A12.62,12.62,0,0,1,156,17.76a9.29,9.29,0,0,1-2.49-6.42,10.35,10.35,0,0,1,2.49-7C158.58,1.49,162.68,0,168.32,0c7.41,0,11.06,3.26,12.83,6a13.87,13.87,0,0,1,2,6.86h-7.57v.06a5,5,0,0,0-.83-2.82c-1.11-1.55-3.32-2.49-6.42-2.49s-6.91.83-6.91,3.26,2.43,3.71,7.35,4.26c5.48.61,9.52,2.32,12,5.14a9.85,9.85,0,0,1,2.43,6.48,9.59,9.59,0,0,1-2.38,6.74,11.37,11.37,0,0,1-4.92,3.16,23.85,23.85,0,0,1-7.69,1.05A17.89,17.89,0,0,1,161.74,36.62Z"/></g></g></svg>