<svg xmlns="http://www.w3.org/2000/svg" width="20.593" height="21.133" viewBox="0 0 20.593 21.133">
  <path id="Icon_awesome-arrow-up" data-name="Icon awesome-arrow-up" d="M1.777,14.394.73,13.347a1.127,1.127,0,0,1,0-1.6L9.894,2.579a1.127,1.127,0,0,1,1.6,0l9.165,9.165a1.127,1.127,0,0,1,0,1.6L19.611,14.39a1.133,1.133,0,0,1-1.618-.019l-5.41-5.679V22.248a1.129,1.129,0,0,1-1.132,1.132H9.942A1.129,1.129,0,0,1,8.81,22.248V8.692L3.395,14.376a1.125,1.125,0,0,1-1.618.019Z" transform="translate(-0.397 -2.246)" fill="#fff"/>
</svg>
